<svg width="70" height="55" viewBox="0 0 70 55" fill="none" xmlns="http://www.w3.org/2000/svg">
<path d="M58.6858 46.3203C58.6858 47.1551 58.1267 47.7567 57.3247 47.7567C56.4983 47.7567 55.9635 47.1183 55.9635 46.3203C55.9635 45.5223 56.4983 44.8839 57.3247 44.8839C58.1267 44.8839 58.6858 45.5223 58.6858 46.3203ZM20.9149 44.8839C20.0521 44.8839 19.5538 45.5223 19.5538 46.3203C19.5538 47.1183 20.0521 47.7567 20.9149 47.7567C21.7049 47.7567 22.2396 47.1551 22.2396 46.3203C22.2274 45.5223 21.7049 44.8839 20.9149 44.8839ZM35.1944 44.8471C34.5382 44.8471 34.1372 45.2768 34.0399 45.9152H36.3611C36.2517 45.2154 35.8264 44.8471 35.1944 44.8471ZM48.2951 44.8839C47.4688 44.8839 46.9705 45.5223 46.9705 46.3203C46.9705 47.1183 47.4688 47.7567 48.2951 47.7567C49.1215 47.7567 49.6562 47.1551 49.6562 46.3203C49.6562 45.5223 49.1215 44.8839 48.2951 44.8839ZM61.1649 48.0882C61.1649 48.125 61.2014 48.1496 61.2014 48.2232C61.2014 48.26 61.1649 48.2846 61.1649 48.3583C61.1285 48.3951 61.1285 48.4196 61.1042 48.4565C61.0677 48.4933 61.0434 48.5179 60.9705 48.5179C60.934 48.5547 60.9097 48.5547 60.8368 48.5547C60.8003 48.5547 60.776 48.5547 60.7031 48.5179C60.6667 48.5179 60.6424 48.481 60.6059 48.4565C60.5694 48.4196 60.5451 48.3951 60.5451 48.3583C60.5087 48.2969 60.5087 48.26 60.5087 48.2232C60.5087 48.1618 60.5087 48.125 60.5451 48.0882C60.5451 48.0268 60.5816 47.99 60.6059 47.9531C60.6424 47.9163 60.6667 47.9163 60.7031 47.8917C60.7639 47.8549 60.8003 47.8549 60.8368 47.8549C60.8976 47.8549 60.934 47.8549 60.9705 47.8917C61.0312 47.9286 61.0677 47.9286 61.1042 47.9531C61.1406 47.9777 61.1285 48.0268 61.1649 48.0882ZM60.8976 48.26C60.9583 48.26 60.9583 48.2232 60.9948 48.2232C61.0312 48.1864 61.0312 48.1618 61.0312 48.125C61.0312 48.0882 61.0312 48.0636 60.9948 48.0268C60.9583 48.0268 60.934 47.99 60.8611 47.99H60.6667V48.4196H60.7639V48.2478H60.8003L60.934 48.4196H61.0312L60.8976 48.26ZM70 5.89286V49.1071C70 52.3605 67.3872 55 64.1667 55H5.83333C2.61285 55 0 52.3605 0 49.1071V5.89286C0 2.63951 2.61285 0 5.83333 0H64.1667C67.3872 0 70 2.63951 70 5.89286ZM7.77778 23.0312C7.77778 32.423 15.3247 40.0346 24.6094 40.0346C27.9149 40.0346 31.1597 39.0279 33.9062 37.1987C25.0469 29.9185 25.1076 16.1808 33.9062 8.90067C31.1597 7.05915 27.9149 6.06473 24.6094 6.06473C15.3247 6.05246 7.77778 13.6763 7.77778 23.0312ZM35 36.3884C43.5677 29.6362 43.5312 16.4754 35 9.68638C26.4688 16.4754 26.4323 29.6484 35 36.3884ZM17.7066 45.7556C17.7066 44.6875 17.0139 43.9877 15.9201 43.9509C15.3611 43.9509 14.7656 44.1228 14.3646 44.7489C14.0729 44.2455 13.5747 43.9509 12.8819 43.9509C12.4201 43.9509 11.9583 44.1228 11.5938 44.6138V44.0737H10.5972V48.5792H11.5938C11.5938 46.2589 11.2899 44.8717 12.6875 44.8717C13.9271 44.8717 13.684 46.1239 13.684 48.5792H14.6441C14.6441 46.3326 14.3403 44.8717 15.7378 44.8717C16.9774 44.8717 16.7344 46.0993 16.7344 48.5792H17.7309V45.7556H17.7066ZM23.1632 44.0737H22.2031V44.6138C21.875 44.2087 21.4132 43.9509 20.7812 43.9509C19.5295 43.9509 18.5694 44.9576 18.5694 46.3203C18.5694 47.6953 19.5295 48.6897 20.7812 48.6897C21.4132 48.6897 21.875 48.4565 22.2031 48.0268V48.5915H23.1632V44.0737ZM28.0851 47.2165C28.0851 45.375 25.3021 46.2098 25.3021 45.3504C25.3021 44.6507 26.7483 44.7612 27.5503 45.2154L27.9514 44.4174C26.809 43.6685 24.2812 43.6808 24.2812 45.4241C24.2812 47.1797 27.0642 46.4431 27.0642 47.2656C27.0642 48.0391 25.4236 47.9777 24.5486 47.3638L24.1233 48.1373C25.4844 49.0703 28.0851 48.8739 28.0851 47.2165ZM32.3872 48.3583L32.1198 47.5234C31.658 47.7812 30.6372 48.0636 30.6372 47.0201V44.9821H32.2292V44.0737H30.6372V42.6987H29.6406V44.0737H28.717V44.9699H29.6406V47.0201C29.6406 49.1808 31.7431 48.7879 32.3872 48.3583ZM34.0035 46.7132H37.3455C37.3455 44.7243 36.4462 43.9386 35.2309 43.9386C33.9427 43.9386 33.0191 44.9085 33.0191 46.308C33.0191 48.8248 35.7656 49.2422 37.1267 48.0513L36.6649 47.3147C35.717 48.1004 34.283 48.0268 34.0035 46.7132ZM41.1858 44.0737C40.6267 43.8281 39.776 43.8527 39.3385 44.6138V44.0737H38.342V48.5792H39.3385V46.0379C39.3385 44.6138 40.4931 44.798 40.8941 45.0067L41.1858 44.0737ZM42.474 46.3203C42.474 44.9208 43.8837 44.4665 44.9896 45.2891L45.4514 44.4911C44.0417 43.3739 41.4774 43.9877 41.4774 46.3326C41.4774 48.7634 44.1997 49.2545 45.4514 48.1741L44.9896 47.3761C43.8715 48.1741 42.474 47.6953 42.474 46.3203ZM50.5799 44.0737H49.5833V44.6138C48.5747 43.2634 45.9497 44.0246 45.9497 46.3203C45.9497 48.6775 48.6719 49.3527 49.5833 48.0268V48.5915H50.5799V44.0737ZM54.6753 44.0737C54.3837 43.9263 53.3385 43.7176 52.8281 44.6138V44.0737H51.8681V48.5792H52.8281V46.0379C52.8281 44.6875 53.9219 44.7734 54.3837 45.0067L54.6753 44.0737ZM59.5729 42.2444H58.6128V44.6138C57.6163 43.2757 54.9792 43.9877 54.9792 46.3203C54.9792 48.702 57.7135 49.3404 58.6128 48.0268V48.5915H59.5729V42.2444ZM60.4965 33.0246V33.5893H60.5938V33.0246H60.8247V32.9263H60.2656V33.0246H60.4965ZM61.2986 48.2232C61.2986 48.1618 61.2986 48.0882 61.2622 48.0268C61.2257 47.99 61.2014 47.9286 61.1649 47.8917C61.1285 47.8549 61.0677 47.8304 61.0312 47.7935C60.9705 47.7935 60.8976 47.7567 60.8368 47.7567C60.8003 47.7567 60.7396 47.7935 60.6667 47.7935C60.6059 47.8304 60.5694 47.8549 60.533 47.8917C60.4722 47.9286 60.4358 47.99 60.4358 48.0268C60.3993 48.0882 60.3993 48.1618 60.3993 48.2232C60.3993 48.26 60.3993 48.3214 60.4358 48.3951C60.4358 48.4319 60.4722 48.4933 60.533 48.5301C60.5694 48.567 60.5938 48.5915 60.6667 48.6283C60.7274 48.6652 60.8003 48.6652 60.8368 48.6652C60.8976 48.6652 60.9705 48.6652 61.0312 48.6283C61.0677 48.5915 61.1285 48.567 61.1649 48.5301C61.2014 48.4933 61.2257 48.4319 61.2622 48.3951C61.2986 48.3214 61.2986 48.26 61.2986 48.2232ZM61.6875 32.9141H61.5174L61.3229 33.3438L61.1285 32.9141H60.9583V33.577H61.0556V33.0737L61.25 33.5033H61.3837L61.5538 33.0737V33.577H61.6875V32.9141ZM62.2222 23.0312C62.2222 13.6763 54.6753 6.05246 45.3906 6.05246C42.0851 6.05246 38.8403 7.05915 36.0938 8.88839C44.8559 16.1685 44.9896 29.9431 36.0938 37.1864C38.8403 39.0279 42.1094 40.0223 45.3906 40.0223C54.6753 40.0346 62.2222 32.423 62.2222 23.0312Z" fill="white"/>
</svg>
