<svg width="16" height="15" viewBox="0 0 16 15" fill="none" xmlns="http://www.w3.org/2000/svg">
<path d="M13.75 7.5H13.25C13.1837 7.5 13.1201 7.52469 13.0732 7.56865C13.0263 7.6126 13 7.67221 13 7.73438V13.5938C13 13.7181 12.9473 13.8373 12.8536 13.9252C12.7598 14.0131 12.6326 14.0625 12.5 14.0625H1.5C1.36739 14.0625 1.24021 14.0131 1.14645 13.9252C1.05268 13.8373 1 13.7181 1 13.5938V3.28125C1 3.15693 1.05268 3.0377 1.14645 2.94979C1.24021 2.86189 1.36739 2.8125 1.5 2.8125H7.75C7.8163 2.8125 7.87989 2.78781 7.92678 2.74385C7.97366 2.6999 8 2.64029 8 2.57812V2.10938C8 2.04721 7.97366 1.9876 7.92678 1.94365C7.87989 1.89969 7.8163 1.875 7.75 1.875H1.5C1.10218 1.875 0.720644 2.02316 0.43934 2.28688C0.158035 2.5506 0 2.90829 0 3.28125L0 13.5938C0 13.9667 0.158035 14.3244 0.43934 14.5881C0.720644 14.8518 1.10218 15 1.5 15H12.5C12.8978 15 13.2794 14.8518 13.5607 14.5881C13.842 14.3244 14 13.9667 14 13.5938V7.73438C14 7.67221 13.9737 7.6126 13.9268 7.56865C13.8799 7.52469 13.8163 7.5 13.75 7.5ZM15.625 0L11.375 0.00996094C11.2755 0.00996094 11.1802 0.0470005 11.1098 0.112931C11.0395 0.178862 11 0.268283 11 0.361523V0.654492C11 0.747732 11.0395 0.837154 11.1098 0.903084C11.1802 0.969015 11.2755 1.00605 11.375 1.00605L14.1875 0.996094L14.2094 1.01689L4.10969 10.4842C4.07473 10.5168 4.04699 10.5557 4.02806 10.5984C4.00913 10.6411 3.99939 10.6869 3.99939 10.7332C3.99939 10.7795 4.00913 10.8253 4.02806 10.868C4.04699 10.9108 4.07473 10.9496 4.10969 10.9822L4.28656 11.148C4.3214 11.1808 4.3628 11.2068 4.40838 11.2246C4.45396 11.2423 4.50283 11.2514 4.55219 11.2514C4.60154 11.2514 4.65041 11.2423 4.69599 11.2246C4.74158 11.2068 4.78297 11.1808 4.81781 11.148L14.9153 1.67988L14.9375 1.70039L14.9269 4.33711C14.9269 4.43035 14.9664 4.51977 15.0367 4.5857C15.107 4.65163 15.2024 4.68867 15.3019 4.68867H15.6144C15.7138 4.68867 15.8092 4.65163 15.8795 4.5857C15.9499 4.51977 15.9894 4.43035 15.9894 4.33711L16 0.351562C16 0.258322 15.9605 0.168901 15.8902 0.10297C15.8198 0.0370395 15.7245 0 15.625 0Z" fill="#171718"/>
</svg>
