<svg width="20" height="20" viewBox="0 0 20 20" fill="none" xmlns="http://www.w3.org/2000/svg">
<path d="M19.8623 18.8116L14.8235 13.7728C14.7337 13.6829 14.6165 13.6361 14.4915 13.6361H14.0892C15.4289 12.1869 16.2492 10.2534 16.2492 8.1246C16.2492 3.63654 12.6127 0 8.1246 0C3.63654 0 0 3.63654 0 8.1246C0 12.6127 3.63654 16.2492 8.1246 16.2492C10.2534 16.2492 12.1869 15.4289 13.6361 14.0931V14.4915C13.6361 14.6165 13.6868 14.7337 13.7728 14.8235L18.8116 19.8623C18.9952 20.0459 19.292 20.0459 19.4756 19.8623L19.8623 19.4756C20.0459 19.292 20.0459 18.9952 19.8623 18.8116ZM8.1246 14.9993C4.32401 14.9993 1.24994 11.9252 1.24994 8.1246C1.24994 4.32401 4.32401 1.24994 8.1246 1.24994C11.9252 1.24994 14.9993 4.32401 14.9993 8.1246C14.9993 11.9252 11.9252 14.9993 8.1246 14.9993Z" fill="white"/>
</svg>
